<svg width="334" height="68" viewBox="0 0 334 68" fill="none" xmlns="http://www.w3.org/2000/svg">
<path d="M5.33026 54V13.2727H19.5689C22.406 13.2727 24.746 13.7633 26.5888 14.7443C28.4316 15.7121 29.8037 17.018 30.7053 18.6619C31.6068 20.2926 32.0575 22.1023 32.0575 24.0909C32.0575 25.8409 31.746 27.286 31.1229 28.4261C30.513 29.5663 29.7043 30.4678 28.6967 31.1307C27.7024 31.7936 26.6219 32.2841 25.4553 32.6023V33C26.7015 33.0795 27.9543 33.517 29.2138 34.3125C30.4733 35.108 31.5272 36.2481 32.3757 37.733C33.2242 39.2178 33.6484 41.0341 33.6484 43.1818C33.6484 45.2235 33.1844 47.0597 32.2564 48.6903C31.3284 50.321 29.8634 51.6136 27.8615 52.5682C25.8596 53.5227 23.2545 54 20.0462 54H5.33026ZM10.2621 49.625H20.0462C23.2678 49.625 25.5547 49.0019 26.907 47.7557C28.2725 46.4962 28.9553 44.9716 28.9553 43.1818C28.9553 41.803 28.6039 40.5303 27.9013 39.3636C27.1986 38.1837 26.1977 37.2424 24.8984 36.5398C23.5992 35.8239 22.0613 35.4659 20.2848 35.4659H10.2621V49.625ZM10.2621 31.1705H19.4098C20.8947 31.1705 22.2337 30.8788 23.4268 30.2955C24.6333 29.7121 25.5878 28.8902 26.2905 27.8295C27.0064 26.7689 27.3643 25.5227 27.3643 24.0909C27.3643 22.3011 26.7412 20.7831 25.495 19.5369C24.2488 18.2775 22.2734 17.6477 19.5689 17.6477H10.2621V31.1705ZM76.1158 33.6364C76.1158 37.9318 75.3402 41.6439 73.7891 44.7727C72.2379 47.9015 70.1101 50.3144 67.4055 52.0114C64.701 53.7083 61.612 54.5568 58.1385 54.5568C54.665 54.5568 51.576 53.7083 48.8714 52.0114C46.1669 50.3144 44.0391 47.9015 42.4879 44.7727C40.9368 41.6439 40.1612 37.9318 40.1612 33.6364C40.1612 29.3409 40.9368 25.6288 42.4879 22.5C44.0391 19.3712 46.1669 16.9583 48.8714 15.2614C51.576 13.5644 54.665 12.7159 58.1385 12.7159C61.612 12.7159 64.701 13.5644 67.4055 15.2614C70.1101 16.9583 72.2379 19.3712 73.7891 22.5C75.3402 25.6288 76.1158 29.3409 76.1158 33.6364ZM71.343 33.6364C71.343 30.1098 70.7531 27.1335 69.5732 24.7074C68.4065 22.2812 66.8222 20.4451 64.8203 19.1989C62.8317 17.9527 60.6044 17.3295 58.1385 17.3295C55.6726 17.3295 53.4387 17.9527 51.4368 19.1989C49.4482 20.4451 47.8639 22.2812 46.6839 24.7074C45.5173 27.1335 44.9339 30.1098 44.9339 33.6364C44.9339 37.1629 45.5173 40.1392 46.6839 42.5653C47.8639 44.9915 49.4482 46.8277 51.4368 48.0739C53.4387 49.3201 55.6726 49.9432 58.1385 49.9432C60.6044 49.9432 62.8317 49.3201 64.8203 48.0739C66.8222 46.8277 68.4065 44.9915 69.5732 42.5653C70.7531 40.1392 71.343 37.1629 71.343 33.6364ZM84.4084 54V13.2727H89.3402V33.4773H89.8175L108.113 13.2727H114.556L97.4538 31.6477L114.556 54H108.59L94.4311 35.0682L89.3402 40.7955V54H84.4084ZM151.798 26H146.866C146.575 24.5814 146.064 23.3352 145.335 22.2614C144.619 21.1875 143.744 20.286 142.71 19.5568C141.689 18.8144 140.556 18.2576 139.31 17.8864C138.063 17.5152 136.764 17.3295 135.412 17.3295C132.946 17.3295 130.712 17.9527 128.71 19.1989C126.722 20.4451 125.137 22.2812 123.957 24.7074C122.791 27.1335 122.207 30.1098 122.207 33.6364C122.207 37.1629 122.791 40.1392 123.957 42.5653C125.137 44.9915 126.722 46.8277 128.71 48.0739C130.712 49.3201 132.946 49.9432 135.412 49.9432C136.764 49.9432 138.063 49.7576 139.31 49.3864C140.556 49.0152 141.689 48.465 142.71 47.7358C143.744 46.9934 144.619 46.0852 145.335 45.0114C146.064 43.9242 146.575 42.678 146.866 41.2727H151.798C151.427 43.3542 150.751 45.2169 149.77 46.8608C148.789 48.5047 147.569 49.9034 146.111 51.0568C144.652 52.197 143.015 53.0653 141.199 53.6619C139.396 54.2585 137.467 54.5568 135.412 54.5568C131.938 54.5568 128.849 53.7083 126.145 52.0114C123.44 50.3144 121.313 47.9015 119.761 44.7727C118.21 41.6439 117.435 37.9318 117.435 33.6364C117.435 29.3409 118.21 25.6288 119.761 22.5C121.313 19.3712 123.44 16.9583 126.145 15.2614C128.849 13.5644 131.938 12.7159 135.412 12.7159C137.467 12.7159 139.396 13.0142 141.199 13.6108C143.015 14.2074 144.652 15.0824 146.111 16.2358C147.569 17.3759 148.789 18.768 149.77 20.4119C150.751 22.0426 151.427 23.9053 151.798 26ZM159.768 54V13.2727H164.7V31.4091H186.415V13.2727H191.347V54H186.415V35.7841H164.7V54H159.768ZM201.221 54V13.2727H225.8V17.6477H206.153V31.4091H224.528V35.7841H206.153V49.625H226.119V54H201.221ZM233.337 54V50.4205L255.292 17.6477H233.099V13.2727H261.178V16.8523L239.224 49.625H261.417V54H233.337ZM271.36 54H266.19L281.144 13.2727H286.235L301.19 54H296.019L283.849 19.7159H283.531L271.36 54ZM273.269 38.0909H294.11V42.4659H273.269V38.0909Z" fill="white"/>
<rect x="304.085" y="4.085" width="28.83" height="28.83" rx="14.415" stroke="white" stroke-width="2.17"/>
<path d="M327.136 14.55H324.679C324.533 13.8433 324.279 13.2224 323.916 12.6874C323.559 12.1523 323.123 11.7032 322.608 11.3399C322.099 10.97 321.535 10.6926 320.914 10.5077C320.293 10.3227 319.646 10.2303 318.972 10.2303C317.743 10.2303 316.63 10.5407 315.633 11.1616C314.642 11.7825 313.853 12.6973 313.265 13.906C312.684 15.1147 312.393 16.5976 312.393 18.3545C312.393 20.1115 312.684 21.5944 313.265 22.8031C313.853 24.0118 314.642 24.9266 315.633 25.5475C316.63 26.1684 317.743 26.4788 318.972 26.4788C319.646 26.4788 320.293 26.3864 320.914 26.2014C321.535 26.0165 322.099 25.7424 322.608 25.3791C323.123 25.0092 323.559 24.5567 323.916 24.0217C324.279 23.4801 324.533 22.8592 324.679 22.1591H327.136C326.951 23.1961 326.614 24.1241 326.125 24.9431C325.636 25.7622 325.029 26.459 324.302 27.0337C323.576 27.6017 322.76 28.0343 321.855 28.3316C320.957 28.6288 319.996 28.7774 318.972 28.7774C317.241 28.7774 315.702 28.3547 314.355 27.5092C313.007 26.6638 311.947 25.4616 311.175 23.9028C310.402 22.344 310.015 20.4946 310.015 18.3545C310.015 16.2145 310.402 14.3651 311.175 12.8063C311.947 11.2474 313.007 10.0453 314.355 9.19986C315.702 8.3544 317.241 7.93168 318.972 7.93168C319.996 7.93168 320.957 8.08029 321.855 8.37752C322.76 8.67475 323.576 9.11069 324.302 9.68533C325.029 10.2534 325.636 10.9469 326.125 11.7659C326.614 12.5784 326.951 13.5064 327.136 14.55Z" fill="white"/>
</svg>
