<svg width="88" height="14" viewBox="0 0 88 14" fill="none" xmlns="http://www.w3.org/2000/svg">
<path d="M10.334 2.79741H16.6272C18.1349 2.79741 18.703 3.3874 18.703 4.60013V5.12456C18.703 5.74732 18.4627 6.20619 18.0038 6.51211C18.5173 6.8071 18.7577 7.2769 18.7577 7.92151V8.55519C18.7577 9.7133 18.2769 10.4453 16.8238 10.4453H10.334C10.1155 10.4453 10.0063 10.3361 10.0063 10.1175V3.12518C10.0063 2.90667 10.1155 2.79741 10.334 2.79741ZM16.1574 7.16764H11.6779V8.79555C11.6779 8.89388 11.7216 8.93758 11.8199 8.93758H16.2994C16.8785 8.93758 17.1079 8.73 17.1079 8.27112V7.85595C17.1079 7.408 16.8785 7.16764 16.1574 7.16764ZM11.6779 4.44718V5.97676H16.1574C16.8785 5.97676 17.097 5.75824 17.097 5.33215V4.96068C17.097 4.51273 16.8566 4.30514 16.2885 4.30514H11.8199C11.7216 4.30514 11.6779 4.34885 11.6779 4.44718ZM26.689 4.44718H27.9127C28.0656 4.44718 28.1312 4.57828 28.0547 4.72031L23.8593 12.1169C23.5752 12.6195 23.0727 12.8599 22.1331 12.8599H21.3683C21.2372 12.8599 21.1716 12.7943 21.1716 12.6632V11.7673C21.1716 11.6362 21.2372 11.5706 21.3683 11.5706H22.0129C22.3079 11.5706 22.4718 11.4942 22.5701 11.3194L23.1601 10.2814C22.7995 10.2487 22.6356 10.1175 22.4608 9.81163L19.5109 4.72031C19.4344 4.57828 19.5 4.44718 19.653 4.44718H20.9094C21.0405 4.44718 21.117 4.49088 21.1716 4.60013L23.5971 8.80648C23.7173 9.00314 23.761 9.05777 23.8593 9.05777L26.4268 4.60013C26.4814 4.49088 26.5579 4.44718 26.689 4.44718ZM35.0643 4.44718H40.6473C42.6139 4.44718 43.2367 5.08086 43.2367 6.66507V10.2049C43.2367 10.3688 43.1602 10.4453 42.9963 10.4453H41.9256C41.7617 10.4453 41.6852 10.3688 41.6852 10.2049V7.03654C41.6852 6.11879 41.5104 5.83472 40.5599 5.83472H38.637V10.2049C38.637 10.3688 38.5496 10.4453 38.3857 10.4453H37.315C37.1511 10.4453 37.0746 10.3688 37.0746 10.2049V5.83472H35.2173C34.2777 5.83472 34.0264 6.11879 34.0264 7.03654V10.2049C34.0264 10.3688 33.9499 10.4453 33.786 10.4453H32.7153C32.5514 10.4453 32.464 10.3688 32.464 10.2049V6.66507C32.464 5.08086 33.0977 4.44718 35.0643 4.44718ZM46.956 4.44718H50.1571C51.654 4.44718 52.0473 4.91697 52.0473 6.23897V7.2769C52.0473 7.7467 51.8506 7.89966 51.4245 7.89966H45.9071V8.16187C45.9071 8.85018 46.1584 9.13424 47.1089 9.13424H51.6649C51.796 9.13424 51.8615 9.1998 51.8615 9.3309V10.2487C51.8615 10.3798 51.796 10.4453 51.6649 10.4453H46.956C44.9894 10.4453 44.3557 9.82256 44.3557 8.23835V6.66507C44.3557 5.08086 44.9894 4.44718 46.956 4.44718ZM45.9071 6.63229V6.92728H50.332C50.4631 6.92728 50.5177 6.88358 50.5177 6.74154V6.28267C50.5177 5.83472 50.3538 5.65991 49.8512 5.65991H47.1089C46.1584 5.65991 45.9071 5.93305 45.9071 6.63229ZM55.7845 4.44718H61.3675C63.3341 4.44718 63.9568 5.08086 63.9568 6.66507V10.2049C63.9568 10.3688 63.8803 10.4453 63.7165 10.4453H62.6458C62.4819 10.4453 62.4054 10.3688 62.4054 10.2049V7.03654C62.4054 6.11879 62.2306 5.83472 61.2801 5.83472H59.3572V10.2049C59.3572 10.3688 59.2698 10.4453 59.1059 10.4453H58.0352C57.8713 10.4453 57.7948 10.3688 57.7948 10.2049V5.83472H55.9375C54.9979 5.83472 54.7466 6.11879 54.7466 7.03654V10.2049C54.7466 10.3688 54.6701 10.4453 54.5062 10.4453H53.4355C53.2716 10.4453 53.1842 10.3688 53.1842 10.2049V6.66507C53.1842 5.08086 53.8179 4.44718 55.7845 4.44718ZM67.6761 4.44718H70.8773C72.3741 4.44718 72.7674 4.91697 72.7674 6.23897V7.2769C72.7674 7.7467 72.5708 7.89966 72.1447 7.89966H66.6273V8.16187C66.6273 8.85018 66.8786 9.13424 67.8291 9.13424H72.385C72.5161 9.13424 72.5817 9.1998 72.5817 9.3309V10.2487C72.5817 10.3798 72.5161 10.4453 72.385 10.4453H67.6761C65.7095 10.4453 65.0758 9.82256 65.0758 8.23835V6.66507C65.0758 5.08086 65.7095 4.44718 67.6761 4.44718ZM66.6273 6.63229V6.92728H71.0521C71.1832 6.92728 71.2379 6.88358 71.2379 6.74154V6.28267C71.2379 5.83472 71.074 5.65991 70.5714 5.65991H67.8291C66.8786 5.65991 66.6273 5.93305 66.6273 6.63229ZM73.6312 4.44718H74.6692V3.005C74.6692 2.84112 74.7566 2.76464 74.9095 2.76464H75.9912C76.1441 2.76464 76.2315 2.84112 76.2315 3.005V4.44718H78.1435C78.2855 4.44718 78.3402 4.51273 78.3402 4.64384V5.53973C78.3402 5.67084 78.2855 5.73639 78.1435 5.73639H76.2315V8.27112C76.2315 8.87203 76.4282 9.1561 77.1493 9.1561H78.209C78.3511 9.1561 78.4057 9.22165 78.4057 9.35276V10.2487C78.4057 10.3798 78.3511 10.4453 78.209 10.4453H76.8871C75.139 10.4453 74.6692 9.82256 74.6692 8.27112V5.73639H73.6312C73.5001 5.73639 73.4346 5.67084 73.4346 5.53973V4.64384C73.4346 4.51273 73.5001 4.44718 73.6312 4.44718Z" fill="white"/>
<rect x="80.7277" y="0.809498" width="6.90801" height="6.79813" rx="3.39907" stroke="white" stroke-width="0.728371"/>
<path d="M83.7555 2.80992H85.9455C86.0183 2.80992 86.0523 2.84391 86.0523 2.91675V3.39262C86.0523 3.46545 86.0183 3.5043 85.9455 3.5043H83.7847C83.2845 3.5043 83.1389 3.64997 83.1389 4.16469V4.85421C83.1389 5.36893 83.2845 5.51946 83.7847 5.51946H85.9455C86.0183 5.51946 86.0523 5.55345 86.0523 5.62629V6.10216C86.0523 6.17499 86.0183 6.20898 85.9455 6.20898H83.7555C82.7747 6.20898 82.3959 5.85937 82.3959 4.92705V4.09185C82.3959 3.15954 82.7747 2.80992 83.7555 2.80992Z" fill="white"/>
</svg>
